<?xml version="1.0" encoding="UTF-8"?>
<svg id="Layer_1" xmlns="http://www.w3.org/2000/svg" version="1.1" viewBox="0 0 1049.8 438.9">
  <!-- Generator: Adobe Illustrator 30.4.0, SVG Export Plug-In . SVG Version: 2.1.4 Build 226)  -->
  <defs>
    <style>
      .st0 {
        fill: #231f20;
      }
    </style>
  </defs>
  <path class="st0" d="M303.4,314.4h-46.8v-23.4h-23.4v-70.2h23.4v-23.4h46.8v23.4h23.4v-70.2h23.4v163.9h-23.4v-23.4h-23.4v23.4ZM256.6,291h46.8v-23.4h23.4v-23.4h-23.4v-23.4h-46.8v70.2Z"/>
  <path class="st0" d="M163,220.7v-70.2h23.4v163.9h-23.4v-23.4M163,267.6v-23.4"/>
  <g>
    <path class="st0" d="M373.6,314.4v-23.4h23.4v-70.1h-23.4v-23.4h46.7v93.5h23.4v23.4h-70.1ZM397,174.1v-23.4h23.4v23.4h-23.4Z"/>
    <path class="st0" d="M467.1,220.9v-23.4h23.4v-46.7h23.4v46.7h46.7v23.4h-46.7v70.1h46.7v-23.4h23.4v23.4h-23.4v23.4h-46.7v-23.4h-23.4v-70.1h-23.4Z"/>
    <path class="st0" d="M700.9,314.4v-93.5h-46.7v23.4h-23.4v70.1h-23.4v-163.6h23.4v70.1h23.4v-23.4h46.7v23.4h23.4v93.5h-23.4Z"/>
    <path class="st0" d="M841.1,314.4h-70.1v-23.4h-23.4v-70.1h23.4v-23.4h70.1v23.4h23.4v46.7h-93.5v23.4h70.1v23.4ZM771,244.3h70.1v-23.4h-70.1v23.4Z"/>
    <path class="st0" d="M887.8,314.4v-116.9h23.4v23.4h23.4v-23.4h46.7v23.4h23.4v23.4h-23.4v-23.4h-46.7v23.4h-23.4v70.1h-23.4Z"/>
  </g>
  <rect class="st0" x="39.5" y="291" width="123.4" height="23.4"/>
  <rect class="st0" x="89.8" y="267.6" width="73.2" height="23.4"/>
  <rect class="st0" x="69.9" y="220.7" width="93.1" height="23.4"/>
  <rect class="st0" x="116.1" y="197.5" width="46.8" height="23.4"/>
  <rect class="st0" x="139.5" y="150.5" width="46.8" height="23.4"/>
</svg>